HIERARCHY
ROOT Hips
{
	OFFSET -3.958830 18.904000 13.208200
	CHANNELS 6 Xposition Yposition Zposition Zrotation Yrotation Xrotation 
	JOINT LHipJoint
	{
		OFFSET 0.000000 0.000000 0.000000
		CHANNELS 3 Zrotation Yrotation Xrotation
		JOINT LeftUpLeg
		{
			OFFSET 1.800000 -1.400000 0.085000
			CHANNELS 3 Zrotation Yrotation Xrotation
			JOINT LeftLeg
			{
				OFFSET 2.215000 -6.000000 0.000000
				CHANNELS 3 Zrotation Yrotation Xrotation
				JOINT LeftFoot
				{
					OFFSET 2.500000 -6.900000 0.000000
					CHANNELS 3 Zrotation Yrotation Xrotation
					JOINT LeftToeBase
					{
						OFFSET 0.200000 -0.500000 1.950000
						CHANNELS 3 Zrotation Yrotation Xrotation
						End Site
						{
							OFFSET 0.000000 0.000000 0.000000
						}
					}
				}
			}
		}
	}
	JOINT RHipJoint
	{
		OFFSET 0.000000 0.000000 0.000000
		CHANNELS 3 Zrotation Yrotation Xrotation
		JOINT RightUpLeg
		{
			OFFSET -1.800000 -1.400000 0.085000
			CHANNELS 3 Zrotation Yrotation Xrotation
			JOINT RightLeg
			{
				OFFSET -2.215000 -6.000000 0.000000
				CHANNELS 3 Zrotation Yrotation Xrotation
				JOINT RightFoot
				{
					OFFSET -2.500000 -6.900000 0.000000
					CHANNELS 3 Zrotation Yrotation Xrotation
					JOINT RightToeBase
					{
						OFFSET -0.200000 -0.500000 1.950000
						CHANNELS 3 Zrotation Yrotation Xrotation
						End Site
						{
							OFFSET 0.000000 0.000000 0.000000
						}
					}
				}
			}
		}
	}
	JOINT LowerBack
	{
		OFFSET 0.000000 0.000000 0.000000
		CHANNELS 3 Zrotation Yrotation Xrotation
		JOINT Spine
		{
			OFFSET -0.087000 1.940000 -0.288900
			CHANNELS 3 Zrotation Yrotation Xrotation
			JOINT Spine1
			{
				OFFSET 0.000000 1.950000 0.060000
				CHANNELS 3 Zrotation Yrotation Xrotation
				JOINT Neck
				{
					OFFSET 0.000000 0.000000 0.000000
					CHANNELS 3 Zrotation Yrotation Xrotation
					JOINT Neck1
					{
						OFFSET 0.000000 1.600000 0.340000
						CHANNELS 3 Zrotation Yrotation Xrotation
						JOINT Head
						{
							OFFSET 0.000000 1.667000 -0.240000
							CHANNELS 3 Zrotation Yrotation Xrotation
							End Site
							{
								OFFSET 0.000000 0.000000 0.000000
							}
						}
					}
				}
				JOINT LeftShoulder
				{
					OFFSET 0.000000 0.000000 0.000000
					CHANNELS 3 Zrotation Yrotation Xrotation
					JOINT LeftArm
					{
						OFFSET 2.700000 1.550000 -0.730000
						CHANNELS 3 Zrotation Yrotation Xrotation
						JOINT LeftForeArm
						{
							OFFSET 5.450000 0.000000 0.000000
							CHANNELS 3 Zrotation Yrotation Xrotation
							JOINT LeftHand
							{
								OFFSET 3.450000 0.000000 0.000000
								CHANNELS 3 Zrotation Yrotation Xrotation
								JOINT LeftHandIndex1
								{
									OFFSET 0.750000 0.000000 0.000000
									CHANNELS 3 Zrotation Yrotation Xrotation
									End Site
									{
										OFFSET 0.000000 0.000000 0.000000
									}
								}
							}
						}
					}
				}
				JOINT RightShoulder
				{
					OFFSET 0.000000 0.000000 0.000000
					CHANNELS 3 Zrotation Yrotation Xrotation
					JOINT RightArm
					{
						OFFSET -2.700000 1.550000 -0.730000
						CHANNELS 3 Zrotation Yrotation Xrotation
						JOINT RightForeArm
						{
							OFFSET -5.450000 0.000000 0.000000
							CHANNELS 3 Zrotation Yrotation Xrotation
							JOINT RightHand
							{
								OFFSET -3.450000 0.000000 0.000000
								CHANNELS 3 Zrotation Yrotation Xrotation
								JOINT RightHandIndex1
								{
									OFFSET -0.750000 0.000000 0.000000
									CHANNELS 3 Zrotation Yrotation Xrotation
									End Site
									{
										OFFSET 0.000000 0.000000 0.000000
									}
								}
							}
						}
					}
				}
			}
		}
	}
}
MOTION
Frames: 13
Frame Time: 0.016667
8.708540 16.251230 -0.974100 -4.580955 50.806362 26.289610 -15.940903 9.831485 6.052890 32.816592 -1.391341 -35.435490 -29.408805 8.241154 2.945003 0.819281 7.100795 1.976864 -0.159990 -0.257220 -0.083590 18.270746 -7.516642 2.986625 -0.199017 7.967674 -32.960423 13.050075 -1.273805 -2.139305 0.190891 -1.328893 3.896930 -0.281240 0.016860 0.047040 -2.777383 -2.463764 -9.134593 -1.685349 4.541119 14.897641 7.566019 3.842339 -9.484976 0.608789 -6.420303 -11.518474 -6.725853 -0.930505 1.624815 2.224970 -3.937650 -23.777860 -2.316583 9.327320 7.188414 -70.306416 20.100139 -21.022347 -60.788106 -40.034020 16.101240 -3.236478 3.538641 0.145480 -0.144680 0.008400 -0.014350 3.642507 -1.508804 4.262499 66.091530 -13.315626 -18.264067 14.147929 8.552412 -0.982791 2.885684 -1.040465 -0.001410 -0.030610 0.034190 0.039600 
8.723710 16.267620 -0.968550 -4.432088 50.576900 24.413707 -15.934645 9.996594 5.974699 32.700526 -1.280866 -33.440739 -29.885517 8.590693 3.162351 0.866942 7.194519 1.938616 -0.174680 -0.278210 -0.082060 18.236197 -7.673990 2.895601 -0.333205 7.359311 -31.040453 13.119981 -1.514255 -1.574762 0.170541 -1.419512 3.870907 -0.309100 -0.002130 0.049930 -2.760416 -2.464152 -9.058457 -1.512853 4.366322 14.319522 7.815786 3.764292 -9.243559 0.674039 -6.325301 -11.574309 -6.691687 -1.178153 2.891765 2.334900 -3.670490 -23.345620 -2.134684 9.349754 7.384057 -71.020940 19.679954 -20.211150 -61.918869 -40.723344 17.168503 -3.212673 3.558634 0.154090 -0.156300 0.019890 -0.025580 3.252527 -1.603146 4.284181 66.787835 -12.724780 -17.950525 12.301127 10.039886 -0.689967 2.888878 -1.032592 0.008980 -0.053650 0.033920 0.034510 
8.743660 16.282550 -0.961390 -4.078694 50.685351 22.777895 -15.925004 10.173307 5.874456 32.366104 -1.217193 -31.848279 -29.993103 8.929738 3.613577 0.884941 7.239382 1.920693 -0.174390 -0.281040 -0.076780 18.204979 -7.845319 2.804010 -0.279384 6.699977 -29.051952 12.764534 -1.701430 -1.195647 0.150003 -1.499602 3.850378 -0.317730 -0.011950 0.050700 -2.764596 -2.475854 -8.962486 -1.225833 3.945896 13.655542 7.850152 3.467074 -8.993868 0.682492 -6.306469 -11.503162 -6.864788 -0.979584 3.794496 2.243600 -3.246460 -22.979350 -2.129335 9.676749 7.467349 -71.224771 19.759439 -19.478397 -63.475306 -40.130117 17.556351 -3.201853 3.560008 0.162950 -0.162620 0.028350 -0.025620 3.139606 -2.029773 4.116314 67.156029 -12.190364 -17.583103 10.860897 10.975267 -0.518076 2.888965 -1.030006 0.011950 -0.063440 0.028060 0.030730 
8.756860 16.287780 -0.950770 -3.945380 50.420621 20.948759 -15.910244 10.325177 5.774292 32.186035 -1.088179 -29.819718 -30.285340 9.230502 3.782731 0.902564 7.312897 1.885995 -0.164690 -0.274810 -0.052150 18.182190 -8.000125 2.726893 -0.181582 6.041803 -26.925853 12.611388 -1.862245 -1.133969 0.111165 -1.595151 3.816329 -0.320770 -0.037720 0.053800 -2.751553 -2.445535 -8.874947 -1.135915 3.832090 12.958147 7.863129 3.419492 -8.451722 0.758367 -5.981276 -11.364854 -6.517409 -1.125107 5.162647 2.224530 -2.738900 -23.152990 -1.998928 10.032356 7.450966 -71.237176 19.348605 -18.262883 -65.589604 -40.635293 19.020221 -3.180061 3.575461 0.187510 -0.177560 0.051780 -0.034420 2.716067 -2.650016 3.975494 67.832456 -11.681031 -17.379025 10.109787 12.190200 -0.372718 2.878869 -1.022022 0.014720 -0.072310 0.020560 0.016170 
8.775370 16.295560 -0.948300 -3.677896 50.035815 19.339981 -15.875938 10.482732 5.629290 31.750641 -0.977748 -27.905897 -30.409107 9.647030 4.313357 0.903303 7.372152 1.862883 -0.163530 -0.276420 -0.027790 18.171934 -8.184004 2.671150 -0.498213 5.435412 -25.187035 12.542956 -2.076666 -0.752911 0.082693 -1.704094 3.780864 -0.320170 -0.052980 0.048030 -2.782027 -2.346261 -8.759869 -0.547611 3.643239 11.995214 7.350389 3.338380 -7.482493 0.941514 -5.702472 -11.316382 -6.196928 -1.443577 6.402529 1.521450 -2.231810 -22.778320 -1.635497 10.126369 7.479090 -72.013030 18.464753 -17.273824 -66.536213 -41.711362 20.372553 -3.167708 3.572178 0.205450 -0.180120 0.064480 -0.045190 1.798318 -2.978766 3.937231 69.426659 -10.870146 -17.314950 9.117776 13.386092 -0.275765 2.861796 -1.016150 0.004690 -0.068220 0.017100 -0.001720 
8.797440 16.304060 -0.940680 -3.274032 49.590877 17.772126 -15.827841 10.675844 5.421145 30.971746 -0.941498 -25.893832 -29.932635 9.899576 4.796312 0.897991 7.322720 1.873273 -0.158660 -0.268650 -0.025020 18.161876 -8.397359 2.642502 -0.896789 4.774910 -23.331475 12.680824 -2.299805 -0.500777 0.050133 -1.851299 3.730133 -0.315870 -0.056790 0.044770 -2.825004 -2.232198 -8.617656 -0.431728 3.578400 10.944399 7.240044 3.283118 -6.366997 0.825584 -5.487276 -11.307952 -6.146975 -1.188224 7.910116 2.179560 -1.907140 -21.826290 -1.712218 9.866368 7.761530 -73.488261 17.820219 -16.684976 -67.847044 -44.307920 22.770253 -3.141167 3.607897 0.207220 -0.182800 0.068690 -0.048000 1.936364 -2.966320 3.833845 69.912043 -10.113525 -16.850683 8.132517 14.070616 -0.210980 2.854356 -1.021955 0.007260 -0.069990 0.017540 -0.003550 
8.817830 16.309360 -0.930020 -3.081724 49.580032 16.151727 -15.800317 10.824485 5.276345 30.724150 -0.795066 -24.418050 -29.611225 10.415898 5.800184 0.919814 7.366377 1.854346 -0.192780 -0.317170 -0.028130 18.143213 -8.567648 2.645767 -1.295065 4.179571 -21.403655 13.177175 -2.504639 -0.698353 0.014114 -2.016977 3.676837 -0.355320 -0.065840 0.044190 -2.838152 -2.120407 -8.565211 -0.251890 3.471981 10.263041 7.260150 3.233240 -5.927516 0.903837 -4.973354 -11.546772 -5.703473 -1.379720 10.159363 2.495060 -1.546210 -20.160170 -0.813196 9.740317 8.150397 -75.100167 17.600669 -16.193680 -68.745371 -45.080800 23.903283 -3.111707 3.615218 0.221570 -0.188350 0.075400 -0.066340 0.697741 -3.222578 4.002034 71.116698 -9.714060 -16.795252 8.130549 14.879834 -0.083024 2.858211 -1.009533 0.004380 -0.087930 0.029790 -0.013840 
8.844300 16.316040 -0.913510 -2.828560 49.691307 14.681711 -15.759075 10.949101 5.119789 30.272399 -0.712152 -22.823332 -29.131567 10.632868 6.236744 0.918478 7.330842 1.864084 -0.195840 -0.325400 -0.007060 18.138921 -8.788104 2.627109 -1.339817 3.602359 -19.756201 12.689130 -2.679669 -0.451566 -0.006857 -2.124636 3.642128 -0.361860 -0.080540 0.044500 -2.898162 -1.900577 -8.467096 0.102871 3.293080 9.280658 6.681872 3.116000 -5.429621 1.099231 -4.350495 -11.578488 -4.961526 -1.730383 11.906040 1.758830 -1.119920 -18.261090 -0.747833 9.875286 8.318543 -76.580971 17.441911 -15.673684 -69.544072 -47.495066 26.163833 -3.097475 3.635738 0.219570 -0.180910 0.080120 -0.078120 -0.048871 -3.793107 3.927129 71.899867 -9.068627 -16.219381 8.344446 14.787597 -0.027132 2.862486 -1.018062 0.005510 -0.104300 0.024740 -0.027510 
8.861380 16.333330 -0.891020 -2.107614 49.731353 12.987935 -15.727783 11.078195 4.952415 29.898623 -0.619198 -20.747398 -29.052538 11.028916 6.959058 0.903770 7.381260 1.835603 -0.156370 -0.282890 0.041000 18.128520 -9.007669 2.582429 -1.711074 2.833432 -17.475866 12.192869 -2.923187 -0.139751 -0.065778 -2.283567 3.580309 -0.332200 -0.114020 0.042550 -2.928163 -1.712487 -8.350516 -0.249240 3.104653 8.201727 6.546886 2.717592 -3.561252 1.038704 -3.390030 -11.635792 -3.961237 -1.742240 14.649868 1.508420 -0.382500 -17.618950 -1.591085 7.922908 8.718845 -75.952930 16.573713 -14.997860 -72.062253 -48.946377 28.302221 -3.082643 3.660730 0.249430 -0.192000 0.109940 -0.083550 0.620970 -2.764257 3.836859 71.714238 -7.429872 -14.999689 7.591877 13.703486 -0.049578 2.859186 -1.025865 0.003130 -0.102240 0.007260 -0.051440 
8.879430 16.354760 -0.876080 -1.309391 49.250922 12.010561 -15.657584 11.146684 4.717623 29.004076 -0.573033 -18.979046 -28.596337 11.160661 7.385297 0.862571 7.322511 1.857626 -0.108240 -0.220930 0.068820 18.158825 -9.235551 2.579210 -2.394950 2.281142 -15.932837 12.107593 -3.109958 -0.052971 -0.111123 -2.476528 3.509416 -0.277740 -0.112060 0.047400 -3.063464 -1.367263 -8.176210 -0.334039 3.086593 6.912360 5.850892 2.596567 -2.094711 0.750388 -2.430459 -11.317504 -2.549633 -1.979126 15.814134 1.674020 -0.266550 -16.808200 -2.724493 7.025769 8.720580 -74.702595 15.889457 -14.088274 -74.046140 -50.857189 30.831662 -3.110145 3.696332 0.242770 -0.173060 0.113240 -0.072540 1.995751 -2.731612 3.374785 71.641947 -6.110322 -13.876055 6.247734 13.384046 -0.130566 2.834295 -1.056002 0.002610 -0.090260 -0.007930 -0.057960 
8.887780 16.363170 -0.867730 -1.035886 48.756212 10.642523 -15.623563 11.254033 4.547028 28.567089 -0.428682 -17.535831 -28.109223 11.527755 8.294918 0.861923 7.332860 1.857958 -0.117570 -0.230070 0.074200 18.154601 -9.416656 2.598824 -2.788441 1.858587 -14.575021 12.222092 -3.341678 0.247121 -0.142191 -2.617543 3.464627 -0.281820 -0.112870 0.040510 -3.116149 -1.163974 -8.103888 -0.335002 3.219332 6.075928 5.738314 2.626258 -1.011426 0.770931 -1.716171 -11.685612 -1.828612 -1.851910 18.146865 1.651570 0.254220 -15.257540 -3.077639 5.007634 9.084170 -74.528664 14.753559 -13.668665 -73.796589 -50.810452 30.569058 -3.126607 3.677252 0.249910 -0.169110 0.118680 -0.080510 2.205895 -1.325833 3.774671 71.775099 -5.311079 -13.339664 5.873428 13.556293 -0.102959 2.824932 -1.058818 -0.005300 -0.083600 -0.002350 -0.065950 
8.902530 16.378820 -0.856500 -0.594367 48.439811 9.881425 -15.591823 11.377157 4.373873 27.852772 -0.352414 -16.468389 -27.389505 11.673031 8.942852 0.818902 7.288744 1.885343 -0.111260 -0.231170 0.092870 18.154144 -9.578194 2.592291 -3.035868 1.557057 -13.721593 11.958691 -3.538875 0.884179 -0.152477 -2.711942 3.433061 -0.265850 -0.101250 0.039110 -3.191418 -1.043287 -7.982037 -0.027020 3.107774 5.453534 5.099754 2.567629 -0.671412 0.866130 -1.486915 -11.435994 -1.490910 -1.739290 18.461855 0.876550 0.686360 -14.762340 -4.397724 5.051555 8.876116 -73.556329 14.810531 -13.124354 -74.583089 -51.751308 31.815470 -3.172568 3.655419 0.252310 -0.151810 0.108670 -0.083950 3.244224 -1.583354 3.562805 71.580308 -4.917500 -12.956807 5.596295 14.472546 -0.119497 2.798302 -1.063539 -0.024280 -0.067570 0.002070 -0.080160 
8.920910 16.394470 -0.856210 -0.714492 48.218387 8.331543 -15.560277 11.561323 4.211491 27.003677 -0.297012 -15.238700 -26.238581 11.740464 9.745080 0.815289 7.117681 1.933268 -0.141280 -0.275020 0.113420 18.120485 -9.871320 2.636304 -2.315818 1.182770 -12.639284 10.792976 -3.726924 1.912660 -0.172009 -2.698933 3.436800 -0.316760 -0.152160 0.034790 -3.260957 -0.772620 -7.975000 0.644822 3.050389 5.251936 4.262520 2.667821 -1.011607 1.411300 -0.559632 -11.985324 -0.522894 -1.759167 22.016933 0.316210 1.684980 -13.504060 -5.121831 3.789802 9.253074 -74.747429 14.674705 -13.419439 -72.701683 -52.716192 31.417450 -3.151692 3.607872 0.292160 -0.183690 0.146180 -0.115980 2.692699 -0.883757 4.069747 73.381083 -4.601817 -12.866737 4.852343 14.927269 -0.036826 2.817961 -1.029101 -0.018300 -0.095740 0.006300 -0.103770 
